<svg xmlns="http://www.w3.org/2000/svg" viewBox="0 0 32 32" width="32" height="32" shape-rendering="crispEdges">
  <rect width="32" height="32" rx="7" fill="#0f1a12"/>
  <!-- Antennas -->
  <rect x="10" y="3" width="2" height="2" fill="#86b06a"/>
  <rect x="12" y="5" width="2" height="2" fill="#86b06a"/>
  <rect x="20" y="3" width="2" height="2" fill="#86b06a"/>
  <rect x="18" y="5" width="2" height="2" fill="#86b06a"/>
  <rect x="14" y="6" width="4" height="1" fill="#e0f8cf"/>
  <!-- TV Body -->
  <rect x="4" y="7" width="24" height="21" rx="2" fill="#1f3325"/>
  <rect x="5" y="8" width="22" height="19" fill="#2d4a33"/>
  <!-- Screen Frame / Bezel -->
  <rect x="7" y="10" width="15" height="15" fill="#0f1a12"/>
  <!-- TV Screen base -->
  <rect x="8" y="11" width="13" height="13" fill="#182e1e"/>
  <!-- Static / Glitch pattern -->
  <rect x="8" y="11" width="13" height="2" fill="#86b06a"/>
  <rect x="10" y="11" width="4" height="1" fill="#e0f8cf"/>
  <rect x="18" y="12" width="3" height="1" fill="#ffffff"/>
  <rect x="9" y="13" width="5" height="1" fill="#e0f8cf"/>
  <rect x="16" y="13" width="4" height="1" fill="#86b06a"/>
  <rect x="8" y="14" width="3" height="1" fill="#ffffff"/>
  <rect x="13" y="14" width="6" height="1" fill="#e0f8cf"/>
  <rect x="10" y="15" width="8" height="2" fill="#86b06a"/>
  <rect x="14" y="15" width="3" height="1" fill="#ffffff"/>
  <rect x="8" y="17" width="13" height="1" fill="#2d4a33"/>
  <rect x="9" y="18" width="6" height="1" fill="#e0f8cf"/>
  <rect x="17" y="18" width="3" height="1" fill="#ffffff"/>
  <rect x="8" y="19" width="4" height="1" fill="#86b06a"/>
  <rect x="14" y="19" width="5" height="1" fill="#e0f8cf"/>
  <rect x="9" y="20" width="10" height="2" fill="#86b06a"/>
  <rect x="11" y="21" width="4" height="1" fill="#e0f8cf"/>
  <rect x="16" y="22" width="3" height="1" fill="#ffffff"/>
  <rect x="8" y="23" width="13" height="1" fill="#e0f8cf"/>
  <!-- Knobs & Speaker -->
  <rect x="23" y="11" width="3" height="3" fill="#0f1a12"/>
  <rect x="24" y="12" width="1" height="1" fill="#e0f8cf"/>
  <rect x="23" y="15" width="3" height="3" fill="#0f1a12"/>
  <rect x="24" y="16" width="1" height="1" fill="#e0f8cf"/>
  <rect x="23" y="20" width="3" height="1" fill="#0f1a12"/>
  <rect x="23" y="22" width="3" height="1" fill="#0f1a12"/>
</svg>
